# 3ds Max Wavefront OBJ Exporter v0.97b - (c)2007 guruware
# 创建的文件:16.04.2018 10:16:36

mtllib zhengti.mtl

#
# object texture
#

v  34.7440 25.8797 -3.2339
v  35.2062 25.9695 -3.2339
v  35.6867 26.4062 -3.2339
v  32.6458 24.7762 -3.2339
v  38.2415 36.3487 -3.2339
v  38.8936 37.3971 -3.2339
v  38.2205 38.1730 -3.2339
v  37.0918 39.2605 -3.2339
v  37.6258 35.4060 -3.2339
v  36.9246 35.1020 -3.2339
v  35.6581 34.5242 -3.2339
v  36.5740 39.8535 -3.2339
v  41.9546 46.2113 -3.2339
v  42.4818 48.1081 -3.2339
v  41.9431 48.1315 -3.2339
v  40.8361 48.5635 -3.2339
v  39.9880 48.9689 -3.2339
v  39.5456 49.2643 -3.2339
v  38.5865 47.8019 -3.2339
v  41.3397 44.4168 -3.2339
v  40.8852 43.4593 -3.2339
v  40.5388 42.8902 -3.2339
v  38.7341 42.6808 -3.2339
v  37.4633 42.6204 -3.2339
v  38.2428 47.8508 -3.2339
v  37.0128 48.3056 -3.2339
v  37.4477 50.6327 -3.2339
v  37.7056 52.8095 -3.2339
v  36.5054 52.6649 -3.2339
v  35.5002 52.4404 -3.2339
v  34.7844 52.3789 -3.2339
v  34.8250 51.4563 -3.2339
v  34.9761 50.5509 -3.2339
v  37.1086 49.2197 -3.2339
v  33.5439 50.6234 -3.2339
v  33.4289 49.3441 -3.2339
v  33.3754 48.1514 -3.2339
v  30.5603 49.3054 -3.2339
v  30.1190 48.9895 -3.2339
v  31.7933 46.8541 -3.2339
v  31.3552 49.2877 -3.2339
v  32.7704 48.1877 -3.2339
v  32.4877 45.9903 -3.2339
v  36.9246 42.3045 -3.2339
v  36.6229 41.9702 -3.2339
v  31.4966 45.1229 -3.2339
v  36.5419 40.6692 -3.2339
v  30.2064 45.7551 -3.2339
v  28.4021 46.2502 -3.2339
v  27.4003 46.4810 -3.2339
v  26.3029 46.5837 -3.2339
v  24.1549 25.1507 -3.2339
v  26.2139 47.9978 -3.2339
v  25.6435 48.1950 -3.2339
v  24.9261 48.1576 -3.2339
v  24.0171 47.1614 -3.2339
v  24.4417 52.5962 -3.2339
v  24.6073 52.9169 -3.2339
v  23.8942 53.0303 -3.2339
v  23.9382 51.5723 -3.2339
v  19.7024 53.8305 -3.2339
v  23.3217 48.8130 -3.2339
v  18.1623 53.2919 -3.2339
v  17.8494 52.5880 -3.2339
v  16.6741 49.0895 -3.2339
v  23.1389 47.7437 -3.2339
v  14.0671 49.0053 -3.2339
v  13.4090 49.6565 -3.2339
v  11.7239 49.4314 -3.2339
v  21.2670 24.3852 -3.2339
v  5.5792 48.5272 -3.2339
v  4.9939 50.0135 -3.2339
v  4.2070 49.8455 -3.2339
v  3.1003 49.2327 -3.2339
v  2.4876 48.6804 -3.2339
v  5.9715 47.7922 -3.2339
v  2.0376 48.1817 -3.2339
v  7.1162 22.5573 -3.2339
v  -4.3224 45.8981 -3.2339
v  -5.5615 45.9820 -3.2339
v  -5.9607 45.0550 -3.2339
v  -6.2737 44.1251 -3.2339
v  -3.0712 45.8637 -3.2339
v  -13.6140 44.8882 -3.2339
v  -13.9276 45.6715 -3.2339
v  -14.7675 45.7964 -3.2339
v  -16.9670 45.0355 -3.2339
v  -16.0412 45.8335 -3.2339
v  -12.9879 44.0804 -3.2339
v  -17.7711 44.3767 -3.2339
v  -20.0694 42.4474 -3.2339
v  -27.2664 20.6748 -3.2339
v  -20.5996 46.7239 -3.2339
v  -19.7212 48.1152 -3.2339
v  -20.3479 49.2635 -3.2339
v  -21.5561 50.1319 -3.2339
v  -22.7393 50.5776 -3.2339
v  -22.0258 44.5935 -3.2339
v  -24.2088 50.7945 -3.2339
v  -31.4264 51.3735 -3.2339
v  -23.7738 51.5395 -3.2339
v  -24.0394 51.8745 -3.2339
v  -25.2316 52.8313 -3.2339
v  -25.5391 55.1368 -3.2339
v  -26.3721 55.4213 -3.2339
v  -30.8303 51.9946 -3.2339
v  -30.1262 56.5604 -3.2339
v  -30.1830 55.0094 -3.2339
v  -31.4924 53.6885 -3.2339
v  -32.2659 50.5659 -3.2339
v  -32.2981 49.4046 -3.2339
v  -32.8036 48.7163 -3.2339
v  -33.6680 47.4637 -3.2339
v  -34.8194 48.2057 -3.2339
v  -35.7039 47.1365 -3.2339
v  -36.1590 45.8343 -3.2339
v  -36.2791 44.6146 -3.2339
v  -36.9590 43.2109 -3.2339
v  -20.9910 43.2989 -3.2339
v  -37.5652 42.1268 -3.2339
v  -37.3030 41.0356 -3.2339
v  -36.7990 40.0499 -3.2339
v  -36.0486 39.1782 -3.2339
v  -36.1777 37.5719 -3.2339
v  -36.3560 35.8938 -3.2339
v  -35.5872 32.9944 -3.2339
v  -37.5240 32.0173 -3.2339
v  -40.7593 31.7933 -3.2339
v  -40.9192 31.3149 -3.2339
v  -41.1898 29.6824 -3.2339
v  -41.3629 27.5503 -3.2339
v  -40.0976 25.7207 -3.2339
v  -42.3216 26.9724 -3.2339
v  -41.5661 26.3778 -3.2339
v  -41.0410 25.8718 -3.2339
v  -38.9546 25.2285 -3.2339
v  -38.1256 24.7933 -3.2339
v  -37.7040 24.5387 -3.2339
v  -35.6593 24.9928 -3.2339
v  -34.1189 25.3614 -3.2339
v  -33.0863 24.7475 -3.2339
v  -31.8682 23.4811 -3.2339
v  -30.4922 23.2593 -3.2339
v  -31.3524 22.9273 -3.2339
v  -29.3167 23.8681 -3.2339
v  -28.9156 22.8520 -3.2339
v  -28.5468 22.1275 -3.2339
v  -27.8090 21.1570 -3.2339
v  -12.3973 43.6820 -3.2339
v  -11.7184 43.4527 -3.2339
v  -8.4477 43.4527 -3.2339
v  -27.0457 19.9001 -3.2339
v  -26.6340 19.4833 -3.2339
v  -26.0366 18.8933 -3.2339
v  -25.9384 16.8747 -3.2339
v  -24.4262 16.7155 -3.2339
v  -21.2618 16.3313 -3.2339
v  -20.8200 16.3059 -3.2339
v  -19.4681 17.3035 -3.2339
v  -17.6229 16.2470 -3.2339
v  -17.2555 14.7837 -3.2339
v  -16.3225 14.5857 -3.2339
v  -15.0705 14.4379 -3.2339
v  -10.4583 14.1663 -3.2339
v  -14.2242 13.2999 -3.2339
v  -13.6794 12.4018 -3.2339
v  -11.9120 12.3628 -3.2339
v  -11.3829 12.9421 -3.2339
v  -8.5777 14.4055 -3.2339
v  -6.5868 43.4823 -3.2339
v  -6.9807 14.2655 -3.2339
v  1.1279 19.1206 -3.2339
v  -5.7631 12.8145 -3.2339
v  -4.3122 12.7445 -3.2339
v  1.0979 17.2359 -3.2339
v  2.1034 13.1495 -3.2339
v  2.2930 14.4447 -3.2339
v  1.5109 15.4774 -3.2339
v  1.6931 12.4152 -3.2339
v  0.7651 11.5304 -3.2339
v  -0.3443 11.4329 -3.2339
v  -1.1308 11.9522 -3.2339
v  -2.7094 12.5706 -3.2339
v  1.8407 20.3360 -3.2339
v  2.1354 21.4104 -3.2339
v  2.3922 22.8504 -3.2339
v  4.3978 22.8635 -3.2339
v  -2.2369 46.2371 -3.2339
v  -1.2894 46.6280 -3.2339
v  -0.3307 46.9949 -3.2339
v  0.6043 47.4962 -3.2339
v  6.3797 47.6476 -3.2339
v  7.5928 47.5276 -3.2339
v  9.0458 47.6999 -3.2339
v  12.0383 20.3204 -3.2339
v  6.8468 21.9560 -3.2339
v  6.8586 20.9481 -3.2339
v  7.8523 20.2003 -3.2339
v  10.4751 19.9854 -3.2339
v  8.6816 19.5128 -3.2339
v  13.7406 20.6553 -3.2339
v  18.4119 22.4934 -3.2339
v  13.7368 18.3724 -3.2339
v  14.8227 18.3492 -3.2339
v  15.7150 18.3928 -3.2339
v  16.4924 19.1530 -3.2339
v  17.7110 19.9846 -3.2339
v  17.2319 19.3064 -3.2339
v  18.0799 21.2636 -3.2339
v  18.9798 23.4284 -3.2339
v  19.5968 24.1069 -3.2339
v  20.4319 24.2461 -3.2339
v  9.7151 48.3240 -3.2339
v  10.7049 48.9571 -3.2339
v  15.7015 49.0575 -3.2339
v  21.8063 24.4200 -3.2339
v  22.3456 24.4548 -3.2339
v  24.7465 25.1855 -3.2339
v  25.9598 24.9637 -3.2339
v  35.6709 34.2751 -3.2339
v  27.0023 24.8124 -3.2339
v  29.9069 24.7841 -3.2339
v  35.9839 33.1992 -3.2339
v  36.3153 31.3420 -3.2339
v  36.3238 28.6132 -3.2339
v  36.0429 27.0465 -3.2339
v  33.2293 24.8026 -3.2339
v  33.5455 25.0463 -3.2339
v  34.0425 25.4713 -3.2339
# 229 vertices

vn 0.0000 -0.0000 1.0000
# 1 vertex normals

vt 0.8697 0.4026 0.0000
vt 0.8746 0.4062 0.0000
vt 0.8807 0.4094 0.0000
vt 0.8490 0.3916 0.0000
vt 0.9111 0.5291 0.0000
vt 0.9116 0.5413 0.0000
vt 0.9073 0.5467 0.0000
vt 0.8955 0.5588 0.0000
vt 0.9031 0.5258 0.0000
vt 0.8932 0.5189 0.0000
vt 0.8761 0.5064 0.0000
vt 0.8854 0.5695 0.0000
vt 0.9387 0.6380 0.0000
vt 0.9477 0.6673 0.0000
vt 0.9506 0.6737 0.0000
vt 0.9388 0.6790 0.0000
vt 0.9297 0.6839 0.0000
vt 0.9262 0.6725 0.0000
vt 0.9172 0.6648 0.0000
vt 0.9442 0.6281 0.0000
vt 0.9393 0.6163 0.0000
vt 0.9318 0.6141 0.0000
vt 0.9147 0.6119 0.0000
vt 0.8992 0.6108 0.0000
vt 0.9094 0.6654 0.0000
vt 0.8896 0.6732 0.0000
vt 0.8906 0.7027 0.0000
vt 0.8967 0.7218 0.0000
vt 0.8926 0.7293 0.0000
vt 0.8818 0.7265 0.0000
vt 0.8802 0.7210 0.0000
vt 0.8808 0.7125 0.0000
vt 0.8758 0.7008 0.0000
vt 0.8930 0.6880 0.0000
vt 0.8585 0.7007 0.0000
vt 0.8597 0.6885 0.0000
vt 0.8591 0.6739 0.0000
vt 0.8291 0.6881 0.0000
vt 0.8316 0.6823 0.0000
vt 0.8423 0.6580 0.0000
vt 0.8376 0.6878 0.0000
vt 0.8503 0.6712 0.0000
vt 0.8497 0.6474 0.0000
vt 0.8903 0.6063 0.0000
vt 0.8900 0.5962 0.0000
vt 0.8453 0.6320 0.0000
vt 0.8874 0.5821 0.0000
vt 0.8248 0.6394 0.0000
vt 0.8051 0.6483 0.0000
vt 0.7930 0.6502 0.0000
vt 0.7760 0.6540 0.0000
vt 0.7607 0.3917 0.0000
vt 0.7767 0.6695 0.0000
vt 0.7766 0.6744 0.0000
vt 0.7690 0.6740 0.0000
vt 0.7576 0.6592 0.0000
vt 0.7544 0.7227 0.0000
vt 0.7533 0.7276 0.0000
vt 0.7479 0.7318 0.0000
vt 0.7512 0.7117 0.0000
vt 0.7132 0.7436 0.0000
vt 0.7447 0.6820 0.0000
vt 0.6968 0.7370 0.0000
vt 0.6934 0.7283 0.0000
vt 0.6809 0.6854 0.0000
vt 0.7453 0.6657 0.0000
vt 0.6531 0.6844 0.0000
vt 0.6420 0.6865 0.0000
vt 0.6273 0.6852 0.0000
vt 0.7306 0.4060 0.0000
vt 0.5577 0.6734 0.0000
vt 0.5531 0.6918 0.0000
vt 0.5478 0.6947 0.0000
vt 0.5360 0.6872 0.0000
vt 0.5295 0.6804 0.0000
vt 0.5620 0.6643 0.0000
vt 0.5189 0.6689 0.0000
vt 0.5749 0.3675 0.0000
vt 0.4535 0.6443 0.0000
vt 0.4424 0.6456 0.0000
vt 0.4393 0.6359 0.0000
vt 0.4359 0.6245 0.0000
vt 0.4569 0.6404 0.0000
vt 0.3541 0.6321 0.0000
vt 0.3528 0.6420 0.0000
vt 0.3453 0.6450 0.0000
vt 0.3218 0.6357 0.0000
vt 0.3317 0.6455 0.0000
vt 0.3626 0.6203 0.0000
vt 0.3132 0.6276 0.0000
vt 0.2887 0.6039 0.0000
vt 0.2119 0.3368 0.0000
vt 0.2830 0.6564 0.0000
vt 0.2924 0.6735 0.0000
vt 0.2857 0.6875 0.0000
vt 0.2728 0.6982 0.0000
vt 0.2602 0.7037 0.0000
vt 0.2506 0.6277 0.0000
vt 0.2445 0.7063 0.0000
vt 0.1675 0.7134 0.0000
vt 0.2420 0.7110 0.0000
vt 0.2396 0.7161 0.0000
vt 0.2310 0.7304 0.0000
vt 0.2188 0.7468 0.0000
vt 0.2164 0.7609 0.0000
vt 0.1738 0.7211 0.0000
vt 0.1814 0.7739 0.0000
vt 0.1808 0.7580 0.0000
vt 0.1668 0.7418 0.0000
vt 0.1669 0.7051 0.0000
vt 0.1690 0.6902 0.0000
vt 0.1571 0.6748 0.0000
vt 0.1428 0.6591 0.0000
vt 0.1284 0.6701 0.0000
vt 0.1218 0.6615 0.0000
vt 0.1170 0.6455 0.0000
vt 0.1157 0.6305 0.0000
vt 0.1084 0.6133 0.0000
vt 0.2408 0.6102 0.0000
vt 0.1020 0.6000 0.0000
vt 0.1048 0.5866 0.0000
vt 0.1101 0.5745 0.0000
vt 0.1181 0.5638 0.0000
vt 0.1168 0.5441 0.0000
vt 0.1149 0.5235 0.0000
vt 0.1382 0.4865 0.0000
vt 0.1024 0.4715 0.0000
vt 0.0679 0.4732 0.0000
vt 0.0617 0.4578 0.0000
vt 0.0664 0.4422 0.0000
vt 0.0614 0.4212 0.0000
vt 0.0786 0.4021 0.0000
vt 0.0512 0.4141 0.0000
vt 0.0593 0.4068 0.0000
vt 0.0658 0.4028 0.0000
vt 0.0871 0.3927 0.0000
vt 0.0960 0.3873 0.0000
vt 0.1023 0.3872 0.0000
vt 0.1214 0.3927 0.0000
vt 0.1387 0.3997 0.0000
vt 0.1498 0.3868 0.0000
vt 0.1628 0.3712 0.0000
vt 0.1775 0.3685 0.0000
vt 0.1686 0.3694 0.0000
vt 0.1900 0.3760 0.0000
vt 0.1943 0.3635 0.0000
vt 0.1982 0.3546 0.0000
vt 0.2061 0.3427 0.0000
vt 0.3706 0.6176 0.0000
vt 0.3889 0.6165 0.0000
vt 0.4035 0.6074 0.0000
vt 0.2161 0.3278 0.0000
vt 0.2343 0.3249 0.0000
vt 0.2311 0.3142 0.0000
vt 0.2261 0.2902 0.0000
vt 0.2422 0.2882 0.0000
vt 0.2719 0.2904 0.0000
vt 0.2916 0.2992 0.0000
vt 0.3145 0.2905 0.0000
vt 0.3251 0.2636 0.0000
vt 0.3384 0.2744 0.0000
vt 0.3425 0.2692 0.0000
vt 0.3467 0.2561 0.0000
vt 0.3918 0.2624 0.0000
vt 0.3494 0.2421 0.0000
vt 0.3569 0.2353 0.0000
vt 0.3748 0.2346 0.0000
vt 0.3761 0.2432 0.0000
vt 0.4114 0.2606 0.0000
vt 0.4212 0.6048 0.0000
vt 0.4214 0.2631 0.0000
vt 0.5094 0.3126 0.0000
vt 0.4421 0.2431 0.0000
vt 0.4565 0.2415 0.0000
vt 0.5093 0.2899 0.0000
vt 0.5226 0.2496 0.0000
vt 0.5239 0.2584 0.0000
vt 0.5163 0.2689 0.0000
vt 0.5153 0.2399 0.0000
vt 0.5103 0.2288 0.0000
vt 0.4991 0.2249 0.0000
vt 0.4908 0.2298 0.0000
vt 0.4784 0.2413 0.0000
vt 0.5173 0.3334 0.0000
vt 0.5205 0.3468 0.0000
vt 0.5245 0.3686 0.0000
vt 0.5483 0.3705 0.0000
vt 0.4687 0.6524 0.0000
vt 0.4740 0.6564 0.0000
vt 0.4894 0.6543 0.0000
vt 0.5081 0.6659 0.0000
vt 0.5723 0.6623 0.0000
vt 0.5880 0.6623 0.0000
vt 0.5998 0.6649 0.0000
vt 0.6309 0.3379 0.0000
vt 0.5760 0.3525 0.0000
vt 0.5761 0.3402 0.0000
vt 0.5867 0.3310 0.0000
vt 0.6142 0.3347 0.0000
vt 0.5956 0.3225 0.0000
vt 0.6472 0.3449 0.0000
vt 0.6910 0.3607 0.0000
vt 0.6524 0.3133 0.0000
vt 0.6611 0.3083 0.0000
vt 0.6687 0.3187 0.0000
vt 0.6775 0.3232 0.0000
vt 0.6903 0.3318 0.0000
vt 0.6840 0.3258 0.0000
vt 0.6889 0.3463 0.0000
vt 0.6990 0.3722 0.0000
vt 0.7049 0.3859 0.0000
vt 0.7200 0.3873 0.0000
vt 0.6070 0.6684 0.0000
vt 0.6142 0.6678 0.0000
vt 0.6705 0.6850 0.0000
vt 0.7388 0.3939 0.0000
vt 0.7469 0.3979 0.0000
vt 0.7670 0.3921 0.0000
vt 0.7776 0.4044 0.0000
vt 0.8801 0.5014 0.0000
vt 0.7957 0.3914 0.0000
vt 0.8221 0.3872 0.0000
vt 0.8848 0.4844 0.0000
vt 0.8857 0.4658 0.0000
vt 0.8861 0.4358 0.0000
vt 0.8831 0.4169 0.0000
vt 0.8559 0.3922 0.0000
vt 0.8605 0.3936 0.0000
vt 0.8655 0.3963 0.0000
# 229 texture coords

g texture
usemtl tietu
s 1
f 1/1/1 2/2/1 3/3/1 4/4/1 
f 5/5/1 6/6/1 7/7/1 8/8/1 
f 9/9/1 5/5/1 8/8/1 10/10/1 
f 11/11/1 10/10/1 8/8/1 12/12/1 
f 13/13/1 14/14/1 15/15/1 16/16/1 
f 17/17/1 18/18/1 19/19/1 16/16/1 
f 13/13/1 16/16/1 19/19/1 20/20/1 
f 21/21/1 20/20/1 19/19/1 22/22/1 
f 23/23/1 22/22/1 19/19/1 24/24/1 
f 24/24/1 19/19/1 25/25/1 26/26/1 
f 27/27/1 28/28/1 29/29/1 30/30/1 
f 30/30/1 31/31/1 32/32/1 27/27/1 
f 27/27/1 32/32/1 33/33/1 34/34/1 
f 33/33/1 35/35/1 36/36/1 34/34/1 
f 26/26/1 34/34/1 36/36/1 37/37/1 
f 38/38/1 39/39/1 40/40/1 41/41/1 
f 42/42/1 41/41/1 40/40/1 43/43/1 
f 37/37/1 42/42/1 43/43/1 26/26/1 
f 24/24/1 26/26/1 43/43/1 44/44/1 
f 45/45/1 44/44/1 43/43/1 46/46/1 
f 47/47/1 45/45/1 46/46/1 12/12/1 
f 11/11/1 12/12/1 46/46/1 48/48/1 
f 11/11/1 48/48/1 49/49/1 50/50/1 
f 11/11/1 50/50/1 51/51/1 52/52/1 
f 51/51/1 53/53/1 54/54/1 55/55/1 
f 51/51/1 55/55/1 56/56/1 52/52/1 
f 57/57/1 58/58/1 59/59/1 60/60/1 
f 60/60/1 59/59/1 61/61/1 62/62/1 
f 62/62/1 61/61/1 63/63/1 64/64/1 
f 62/62/1 64/64/1 65/65/1 66/66/1 
f 67/67/1 68/68/1 69/69/1 70/70/1 
f 71/71/1 72/72/1 73/73/1 74/74/1 
f 71/71/1 74/74/1 75/75/1 76/76/1 
f 76/76/1 75/75/1 77/77/1 78/78/1 
f 79/79/1 80/80/1 81/81/1 82/82/1 
f 83/83/1 79/79/1 82/82/1 78/78/1 
f 84/84/1 85/85/1 86/86/1 87/87/1 
f 86/86/1 88/88/1 87/87/1 
f 89/89/1 84/84/1 87/87/1 90/90/1 
f 89/89/1 90/90/1 91/91/1 92/92/1 
f 93/93/1 94/94/1 95/95/1 96/96/1 
f 93/93/1 96/96/1 97/97/1 98/98/1 
f 98/98/1 97/97/1 99/99/1 100/100/1 
f 99/99/1 101/101/1 102/102/1 103/103/1 
f 103/103/1 104/104/1 105/105/1 106/106/1 
f 105/105/1 107/107/1 108/108/1 106/106/1 
f 108/108/1 109/109/1 106/106/1 
f 99/99/1 103/103/1 106/106/1 100/100/1 
f 98/98/1 100/100/1 110/110/1 111/111/1 
f 98/98/1 111/111/1 112/112/1 113/113/1 
f 113/113/1 114/114/1 115/115/1 116/116/1 
f 113/113/1 116/116/1 117/117/1 98/98/1 
f 98/98/1 117/117/1 118/118/1 119/119/1 
f 119/119/1 118/118/1 120/120/1 121/121/1 
f 119/119/1 121/121/1 122/122/1 123/123/1 
f 119/119/1 123/123/1 124/124/1 91/91/1 
f 91/91/1 124/124/1 125/125/1 126/126/1 
f 127/127/1 128/128/1 129/129/1 130/130/1 
f 127/127/1 130/130/1 131/131/1 132/132/1 
f 131/131/1 133/133/1 134/134/1 135/135/1 
f 131/131/1 135/135/1 132/132/1 
f 127/127/1 132/132/1 136/136/1 137/137/1 
f 127/127/1 137/137/1 138/138/1 139/139/1 
f 127/127/1 139/139/1 140/140/1 126/126/1 
f 91/91/1 126/126/1 140/140/1 141/141/1 
f 91/91/1 141/141/1 142/142/1 143/143/1 
f 142/142/1 144/144/1 143/143/1 
f 91/91/1 143/143/1 145/145/1 146/146/1 
f 91/91/1 146/146/1 147/147/1 148/148/1 
f 91/91/1 148/148/1 92/92/1 
f 149/149/1 89/89/1 92/92/1 150/150/1 
f 151/151/1 150/150/1 92/92/1 152/152/1 
f 151/151/1 152/152/1 153/153/1 154/154/1 
f 154/154/1 155/155/1 156/156/1 157/157/1 
f 151/151/1 154/154/1 157/157/1 158/158/1 
f 151/151/1 158/158/1 159/159/1 160/160/1 
f 160/160/1 161/161/1 162/162/1 163/163/1 
f 151/151/1 160/160/1 163/163/1 164/164/1 
f 165/165/1 166/166/1 167/167/1 168/168/1 
f 165/165/1 168/168/1 164/164/1 163/163/1 
f 151/151/1 164/164/1 169/169/1 170/170/1 
f 170/170/1 169/169/1 171/171/1 172/172/1 
f 171/171/1 173/173/1 174/174/1 175/175/1 
f 176/176/1 177/177/1 178/178/1 179/179/1 
f 180/180/1 179/179/1 178/178/1 181/181/1 
f 182/182/1 181/181/1 178/178/1 183/183/1 
f 183/183/1 178/178/1 175/175/1 174/174/1 
f 171/171/1 175/175/1 172/172/1 
f 170/170/1 172/172/1 184/184/1 185/185/1 
f 170/170/1 185/185/1 186/186/1 187/187/1 
f 170/170/1 187/187/1 78/78/1 82/82/1 
f 188/188/1 83/83/1 78/78/1 189/189/1 
f 190/190/1 189/189/1 78/78/1 191/191/1 
f 77/77/1 191/191/1 78/78/1 
f 192/192/1 76/76/1 78/78/1 193/193/1 
f 194/194/1 193/193/1 78/78/1 195/195/1 
f 196/196/1 197/197/1 198/198/1 199/199/1 
f 198/198/1 200/200/1 199/199/1 
f 78/78/1 196/196/1 199/199/1 195/195/1 
f 194/194/1 195/195/1 201/201/1 202/202/1 
f 201/201/1 203/203/1 204/204/1 205/205/1 
f 201/201/1 205/205/1 206/206/1 207/207/1 
f 206/206/1 208/208/1 207/207/1 
f 201/201/1 207/207/1 209/209/1 202/202/1 
f 194/194/1 202/202/1 210/210/1 211/211/1 
f 194/194/1 211/211/1 212/212/1 70/70/1 
f 213/213/1 194/194/1 70/70/1 214/214/1 
f 69/69/1 214/214/1 70/70/1 
f 215/215/1 67/67/1 70/70/1 65/65/1 
f 66/66/1 65/65/1 70/70/1 56/56/1 
f 56/56/1 70/70/1 216/216/1 217/217/1 
f 56/56/1 217/217/1 52/52/1 
f 11/11/1 52/52/1 218/218/1 219/219/1 
f 220/220/1 11/11/1 219/219/1 221/221/1 
f 220/220/1 221/221/1 222/222/1 223/223/1 
f 224/224/1 223/223/1 222/222/1 225/225/1 
f 225/225/1 222/222/1 4/4/1 226/226/1 
f 3/3/1 226/226/1 4/4/1 
f 4/4/1 227/227/1 228/228/1 229/229/1 
f 1/1/1 4/4/1 229/229/1 
# 107 polygons - 13 triangles

